<?xml version="1.0" encoding="UTF-8"?>
<svg version="1.1" xmlns="http://www.w3.org/2000/svg" width="225" height="225">
<path d="M0 0 C74.25 0 148.5 0 225 0 C225 74.25 225 148.5 225 225 C150.75 225 76.5 225 0 225 C0 150.75 0 76.5 0 0 Z " fill="#25D366" transform="translate(0,0)"/>
<path d="M0 0 C0.67545868 -0.00073517 1.35091736 -0.00147034 2.04684448 -0.00222778 C12.42657849 0.0275578 21.12477599 0.7542969 30.5625 5.4375 C32.22152344 6.19933594 32.22152344 6.19933594 33.9140625 6.9765625 C45.48677435 12.6951625 55.34965336 20.6834625 62.5625 31.4375 C63.32626953 32.53771484 63.32626953 32.53771484 64.10546875 33.66015625 C74.35325436 49.44016545 78.11324785 68.1909367 75.19628906 86.77001953 C74.13804038 91.52113808 72.47262891 95.96993334 70.5625 100.4375 C70.28374023 101.11006836 70.00498047 101.78263672 69.71777344 102.47558594 C65.32633301 112.82926995 59.66858627 120.68438145 51.5625 128.4375 C50.91023438 129.06269531 50.25796875 129.68789062 49.5859375 130.33203125 C35.9436578 142.63500038 18.63340943 148.02966865 0.5 148.0625 C-0.67304687 148.06773682 -1.84609375 148.07297363 -3.0546875 148.07836914 C-11.4809648 147.92123979 -18.48726892 146.4994835 -26.08618164 142.84033203 C-35.60261396 138.38459004 -45.06314446 141.59576828 -54.6875 144.4375 C-60.60019878 146.15461252 -66.3079014 147.76019629 -72.4375 148.4375 C-71.80677273 140.67167046 -69.91945027 133.75692056 -67.609375 126.34179688 C-64.84411217 117.14458692 -63.13233556 109.81428557 -67.25 100.875 C-74.57006987 84.72216174 -75.28816126 65.23836419 -69.1237793 48.54663086 C-61.1039687 28.74353581 -46.68157361 13.40313291 -27 5 C-24.82468765 4.11525535 -22.63754537 3.25881437 -20.4375 2.4375 C-19.5182373 2.09058105 -18.59897461 1.74366211 -17.65185547 1.38623047 C-11.89537995 -0.31281737 -5.96110239 -0.00279217 0 0 Z " fill="#26D366" transform="translate(111.4375,38.5625)"/>
<path d="M0 0 C0.67545868 -0.00073517 1.35091736 -0.00147034 2.04684448 -0.00222778 C12.42657849 0.0275578 21.12477599 0.7542969 30.5625 5.4375 C32.22152344 6.19933594 32.22152344 6.19933594 33.9140625 6.9765625 C45.48677435 12.6951625 55.34965336 20.6834625 62.5625 31.4375 C63.32626953 32.53771484 63.32626953 32.53771484 64.10546875 33.66015625 C74.35325436 49.44016545 78.11324785 68.1909367 75.19628906 86.77001953 C74.13804038 91.52113808 72.47262891 95.96993334 70.5625 100.4375 C70.28374023 101.11006836 70.00498047 101.78263672 69.71777344 102.47558594 C65.32633301 112.82926995 59.66858627 120.68438145 51.5625 128.4375 C50.91023438 129.06269531 50.25796875 129.68789062 49.5859375 130.33203125 C35.9436578 142.63500038 18.63340943 148.02966865 0.5 148.0625 C-0.67304687 148.06773682 -1.84609375 148.07297363 -3.0546875 148.07836914 C-11.4809648 147.92123979 -18.48726892 146.4994835 -26.08618164 142.84033203 C-35.60261396 138.38459004 -45.06314446 141.59576828 -54.6875 144.4375 C-60.60019878 146.15461252 -66.3079014 147.76019629 -72.4375 148.4375 C-71.80677273 140.67167046 -69.91945027 133.75692056 -67.609375 126.34179688 C-64.84411217 117.14458692 -63.13233556 109.81428557 -67.25 100.875 C-74.57006987 84.72216174 -75.28816126 65.23836419 -69.1237793 48.54663086 C-61.1039687 28.74353581 -46.68157361 13.40313291 -27 5 C-24.82468765 4.11525535 -22.63754537 3.25881437 -20.4375 2.4375 C-19.5182373 2.09058105 -18.59897461 1.74366211 -17.65185547 1.38623047 C-11.89537995 -0.31281737 -5.96110239 -0.00279217 0 0 Z M-44.6953125 32.26953125 C-49.59919895 38.37190116 -53.79883709 45.04924385 -56.4375 52.4375 C-56.85322266 53.51064453 -56.85322266 53.51064453 -57.27734375 54.60546875 C-61.94971232 68.49338456 -60.61836651 84.9078486 -55.4375 98.4375 C-54.54333229 100.10727175 -53.61001415 101.75715553 -52.625 103.375 C-50.57930612 106.77817593 -49.9398225 109.07560917 -50.7734375 113.12109375 C-51.97156152 117.30043225 -53.23730386 121.45256296 -54.59765625 125.58203125 C-55.57858316 128.42111378 -55.57858316 128.42111378 -55.4375 131.4375 C-50.46795085 130.37841576 -45.61911152 129.20406344 -40.75 127.75 C-36.6012667 126.61011093 -33.62670317 126.04109894 -29.4375 127.4375 C-28.71949219 127.89511719 -28.00148438 128.35273438 -27.26171875 128.82421875 C-13.1665997 136.87578745 3.53580231 137.3679049 18.90112305 133.27246094 C35.24611092 128.45140862 48.86400242 116.04087777 57.20703125 101.30078125 C64.26492175 86.3917503 65.14259343 68.49361013 59.82543945 52.89624023 C57.5345163 46.82517735 54.49700232 41.57465384 50.5625 36.4375 C49.90507812 35.57511719 49.24765625 34.71273437 48.5703125 33.82421875 C38.87227515 22.11907843 23.61007803 13.87922133 8.3972168 12.19824219 C-12.02896383 10.97957712 -30.48560702 16.99257322 -44.6953125 32.26953125 Z " fill="#F8FDFA" transform="translate(111.4375,38.5625)"/>
<path d="M0 0 C3.87987523 1.46697762 5.23363984 5.14353861 6.890625 8.71484375 C7.2103125 9.33488281 7.53 9.95492187 7.859375 10.59375 C9.70685614 14.41700959 10.51705396 17.50882075 9.890625 21.71484375 C8.59490117 23.73941223 7.2632932 25.74163322 5.890625 27.71484375 C5.890625 34.07535601 9.8864238 37.99070911 13.890625 42.71484375 C18.30703601 46.86796871 24.03810919 50.93203957 29.890625 52.71484375 C32.74029437 52.50334485 33.73624042 51.86326632 35.8125 49.8671875 C36.71742187 48.77083984 36.71742187 48.77083984 37.640625 47.65234375 C38.25421875 46.91886719 38.8678125 46.18539062 39.5 45.4296875 C39.95890625 44.86378906 40.4178125 44.29789063 40.890625 43.71484375 C43.62439 44.329677 46.03236618 45.14411758 48.5625 46.34375 C49.22636719 46.65634766 49.89023438 46.96894531 50.57421875 47.29101562 C51.25613281 47.61650391 51.93804687 47.94199219 52.640625 48.27734375 C53.33800781 48.60669922 54.03539062 48.93605469 54.75390625 49.27539062 C56.4676717 50.08532087 58.17935694 50.89965013 59.890625 51.71484375 C60.00956669 57.00461893 59.80240304 60.19656748 56.890625 64.71484375 C51.29398723 69.88097092 46.90252098 71.29911943 39.37109375 71.15234375 C22.39909288 69.01893848 6.9472462 57.09059215 -3.39648438 44.09814453 C-10.47448472 34.76780377 -16.74148448 25.84484257 -15.109375 13.71484375 C-12.89989776 6.34991962 -8.47938943 -0.66346368 0 0 Z " fill="#F9FDFA" transform="translate(90.109375,77.28515625)"/>
<path d="M0 0 C0.103125 0.639375 0.20625 1.27875 0.3125 1.9375 C0.539375 2.618125 0.76625 3.29875 1 4 C1.99 4.33 2.98 4.66 4 5 C1 7 1 7 -2 7 C-1.125 1.125 -1.125 1.125 0 0 Z " fill="#47D97D" transform="translate(58,163)"/>
</svg>
